<?xml version="1.0" standalone="no"?>
<!DOCTYPE svg PUBLIC "-//W3C//DTD SVG 20010904//EN"
 "http://www.w3.org/TR/2001/REC-SVG-20010904/DTD/svg10.dtd">
<svg version="1.0" xmlns="http://www.w3.org/2000/svg"
 width="256.000000pt" height="256.000000pt" viewBox="0 0 256.000000 256.000000"
 preserveAspectRatio="xMidYMid meet">
<metadata>
Created by potrace 1.14, written by Peter Selinger 2001-2017
</metadata>
<g transform="translate(0.000000,256.000000) scale(0.100000,-0.100000)"
fill="#000000" stroke="none">
<path d="M1193 2544 c-325 -63 -583 -338 -599 -637 -3 -63 -1 -70 25 -100 24
-27 36 -32 71 -31 28 1 49 9 65 24 24 22 29 39 39 126 11 92 71 204 150 278
207 193 545 208 771 32 196 -152 279 -371 246 -654 -15 -128 -42 -224 -88
-315 -34 -69 -98 -170 -125 -199 -7 -7 -31 -33 -52 -58 -21 -25 -62 -70 -90
-100 -141 -151 -219 -260 -270 -380 -99 -230 -194 -318 -353 -328 -145 -9
-230 57 -279 217 -7 25 -14 56 -14 69 0 56 -48 102 -105 102 -39 0 -86 -49
-90 -94 -5 -49 26 -169 61 -238 26 -53 88 -136 111 -151 6 -4 18 -14 25 -21
45 -44 138 -76 238 -81 111 -5 178 8 267 52 129 63 222 176 309 373 39 87 111
201 162 255 73 77 229 256 266 305 126 165 201 355 223 560 14 132 7 289 -17
384 -108 422 -526 691 -947 610z"/>
<path d="M1331 2158 c-134 -24 -197 -95 -291 -328 -61 -150 -52 -136 -144
-230 -80 -83 -106 -127 -106 -179 0 -50 10 -61 89 -101 85 -42 106 -69 104
-131 -2 -52 -31 -96 -92 -139 -73 -51 -95 -90 -99 -169 -2 -54 1 -73 20 -105
35 -60 78 -81 168 -81 88 0 121 15 191 85 118 118 160 297 112 480 -61 233
-68 269 -67 390 1 199 85 309 242 316 67 3 133 -14 165 -44 29 -26 55 -84 63
-138 7 -57 29 -114 43 -114 5 0 17 8 26 17 25 24 16 177 -14 255 -64 166 -222
250 -410 216z"/>
</g>
</svg>
